<svg xmlns="http://www.w3.org/2000/svg" viewBox="0 0 48.51 62.28"><defs><style>.cls-1{fill:#ffbd3a;}.cls-2{fill:#ffdc97;}.cls-3{fill:#ff6565;}.cls-4{fill:#fff;}.cls-5{fill:#e5e5e5;}</style></defs><g id="Layer_2" data-name="Layer 2"><g id="Layer_1-2" data-name="Layer 1"><path class="cls-1" d="M3.33,25.32l40.91,37S51.6,25.94,47,10-14.1-4.09,3.33,25.32Z"/><path class="cls-2" d="M45.51,55.19,6,20.86l4.1-3.72c4.1-3.72.59-14.86-4.5-12.23h0C-.15,9-2.39,15.67,3.33,25.32l40.91,37S44.79,59.51,45.51,55.19Z"/><path class="cls-3" d="M47.79,13.61c-2.12-.28-4.32-.52-6.77-.63-4.73-.22-5.84,1.41-11.1,1.08s-5.21-2.17-7.65-.93-2,1.88-11.59,5.15S6,20.86,6,20.86L45.19,58C46.89,48.11,49.9,27.38,47.79,13.61Z"/><path class="cls-4" d="M19.13,19.7c-2.27,4.52,11.93,29.4,22.25,23C59.42,31.39,29.12-.18,19.13,19.7Z"/><path class="cls-5" d="M43.75,40C33.43,46.42,19.24,21.54,21.51,17a14.83,14.83,0,0,1,.94-1.63,13.13,13.13,0,0,0-3.32,4.31c-2.27,4.52,11.93,29.4,22.25,23a12.3,12.3,0,0,0,4-3.84A14.3,14.3,0,0,1,43.75,40Z"/></g></g></svg>