<svg width="72" height="55" viewBox="0 0 72 55" fill="none" xmlns="http://www.w3.org/2000/svg">
<path d="M60.951 4.5592C56.362 2.44894 51.441 0.894201 46.2957 0.00373539C46.202 -0.0134503 46.1084 0.0294977 46.0601 0.115396C45.4272 1.24351 44.7262 2.71522 44.2353 3.87197C38.7012 3.04165 33.1955 3.04165 27.775 3.87197C27.2839 2.6895 26.5575 1.24351 25.9217 0.115396C25.8735 0.0323637 25.7799 -0.0105843 25.6861 0.00373539C20.5437 0.891356 15.6227 2.4461 11.0308 4.5592C10.9911 4.57638 10.957 4.60504 10.9344 4.64223C1.60018 18.6178 -0.956851 32.25 0.29754 45.713C0.303216 45.7789 0.34011 45.8419 0.391194 45.882C6.54963 50.4145 12.5151 53.1661 18.3698 54.99C18.4635 55.0186 18.5628 54.9843 18.6224 54.9069C20.0074 53.0115 21.2419 51.013 22.3004 48.9113C22.3629 48.7882 22.3033 48.6421 22.1756 48.5935C20.2174 47.849 18.3528 46.9413 16.5592 45.9106C16.4173 45.8276 16.406 45.6242 16.5365 45.5269C16.9139 45.2434 17.2915 44.9485 17.6519 44.6507C17.7171 44.5963 17.8079 44.5848 17.8846 44.6192C29.6679 50.0108 42.4246 50.0108 54.0689 44.6192C54.1455 44.582 54.2364 44.5935 54.3044 44.6479C54.6649 44.9456 55.0424 45.2434 55.4227 45.5269C55.5532 45.6242 55.5447 45.8276 55.4028 45.9106C53.6092 46.9614 51.7446 47.849 49.7835 48.5906C49.6559 48.6393 49.5991 48.7882 49.6615 48.9113C50.7428 51.01 51.9773 53.0086 53.3367 54.9041C53.3935 54.9843 53.4956 55.0186 53.5893 54.99C59.4724 53.1661 65.4379 50.4145 71.5963 45.882C71.6502 45.8419 71.6843 45.7817 71.69 45.7159C73.1912 30.1511 69.1755 16.6308 61.0446 4.64508C61.0248 4.60504 60.9908 4.57638 60.951 4.5592ZM24.0601 37.5154C20.5125 37.5154 17.5894 34.2514 17.5894 30.2427C17.5894 26.2341 20.4558 22.9701 24.0601 22.9701C27.6926 22.9701 30.5874 26.2628 30.5306 30.2427C30.5306 34.2514 27.6642 37.5154 24.0601 37.5154ZM47.9842 37.5154C44.4368 37.5154 41.5137 34.2514 41.5137 30.2427C41.5137 26.2341 44.38 22.9701 47.9842 22.9701C51.6169 22.9701 54.5116 26.2628 54.4549 30.2427C54.4549 34.2514 51.6169 37.5154 47.9842 37.5154Z" fill="white"/>
</svg>
