<svg width="56" height="62" viewBox="0 0 56 62" fill="none" xmlns="http://www.w3.org/2000/svg">
<path d="M55.7569 17.1418C56.1469 19.6491 56.0671 22.2002 55.521 24.6821C55.0046 27.0836 54.038 29.3819 52.6652 31.4718C51.309 33.5404 49.498 35.319 47.351 36.6911C45.1182 38.0999 42.5712 39.0198 39.9012 39.3816L27.9194 40.9636L30.0054 57.1988C30.1296 59.1388 29.7819 60.3743 28.9624 60.8939C28.0026 61.461 26.8957 61.7762 25.759 61.8062C24.7598 62.0646 23.7038 62.0646 22.7046 61.8062C21.8851 61.5637 21.227 60.432 20.7428 58.4113L13.5289 29.2086L6.62541 30.779C5.77509 30.9697 4.88426 30.9345 4.05445 30.6772C3.22464 30.42 2.48923 29.9511 1.93203 29.3241C0.981258 28.2652 0.351223 26.9897 0.106825 25.629C-0.129578 24.0504 0.0276093 22.4424 0.56623 20.9293C0.825946 20.0427 1.4002 19.2637 2.1958 18.7187C2.99141 18.1737 3.96169 17.8947 4.9492 17.927L10.7476 17.6268L9.77916 13.6892C8.8231 10.2251 8.53752 7.91568 8.93485 6.76097C9.33217 5.60625 10.7973 4.75177 13.3551 4.34762L33.3454 0.179101C36.0454 -0.200439 38.8039 0.025216 41.3912 0.837288C43.8982 1.63035 46.211 2.87848 48.1953 4.50928C50.1912 6.15771 51.8707 8.11013 53.1619 10.2828C54.4598 12.407 55.3386 14.7299 55.7569 17.1418ZM41.0932 25.2248C42.114 23.3116 42.3904 21.1285 41.8754 19.0471C41.7144 17.848 41.3542 16.6793 40.8076 15.583C40.3641 14.7284 39.739 13.9664 38.97 13.3428C38.332 12.8215 37.579 12.4366 36.7638 12.2152C35.9486 11.9937 35.0912 11.9411 34.2518 12.0611L23.5737 13.5045L23.909 16.8994L32.0417 16.4144C33.0928 16.2793 34.162 16.483 35.0713 16.9917C35.5207 17.2542 35.8991 17.6095 36.1768 18.0301C36.4546 18.4506 36.6244 18.9251 36.673 19.4166C36.8568 20.5391 36.6154 21.6862 35.9901 22.6614C35.7264 23.1408 35.3491 23.5582 34.8867 23.8823C34.4243 24.2063 33.8888 24.4285 33.3206 24.532L25.5603 26.3565L26.057 29.3241L37.2317 27.8114C38.0523 27.6937 38.8307 27.3955 39.5024 26.9416C40.174 26.4877 40.7194 25.8912 41.0932 25.2017V25.2248Z" fill="#18EADA"/>
</svg>
