<svg width="56" height="62" viewBox="0 0 56 62" fill="none" xmlns="http://www.w3.org/2000/svg">
<path d="M33.4595 37.4497C29.1772 34.1282 22.6505 27.8679 25.4732 21.9596C26.9466 18.8983 30.141 28.0822 34.8502 31.4496C43.6763 37.7558 48.1927 30.3628 47.4216 34.2354C45.0257 46.1897 35.2633 38.8579 33.4595 37.4497Z" fill="#18EADA"/>
<path d="M39.6556 13.7248C29.0807 13.7248 20.9155 16.7861 16.0687 22.4495C14.0375 24.7629 12.6098 27.6462 11.9379 30.7915C13.1557 32.1627 14.5762 33.2913 16.1375 34.1283C19.1255 35.7508 48.2752 53.2613 55.8484 57.8073C55.1678 48.0051 53.5852 38.3063 51.1255 28.8629C49.5981 23.7943 47.8332 18.818 45.8381 13.9544H45.4387C43.4422 13.7248 41.5007 13.7248 39.6556 13.7248ZM48.0411 36.3018L47.8897 36.761C47.8952 36.8118 47.8952 36.8632 47.8897 36.914L47.7245 37.3579C47.6961 37.4057 47.673 37.4571 47.6556 37.511L47.3251 38.1998L47.1737 38.5059L47.0084 38.7814L46.7881 39.1488C46.7327 39.2341 46.6729 39.3159 46.6091 39.3937L46.3337 39.807L46.1823 40.0059C46.0308 40.2049 45.8656 40.4192 45.6866 40.6182C38.7193 48.7153 22.2787 29.72 23.1186 25.1587C23.1186 24.8832 23.2287 24.623 23.2976 24.3475C23.3664 24.0719 23.2976 24.1791 23.3664 24.1026C23.4353 24.026 23.4628 23.7352 23.5179 23.5668L23.6005 23.3066L23.8071 22.7097V22.6025C23.8897 22.3882 23.9861 22.1739 24.0824 21.9597C24.1137 21.8801 24.1506 21.8033 24.1926 21.7301L24.3854 21.3474L24.5231 21.1178C24.593 20.9795 24.6712 20.8466 24.7571 20.7198C31.3802 10.2043 51.5936 24.0413 48.0411 36.3018Z" fill="#18EADA"/>
<path d="M10.5748 31.4343L10.4096 31.1741V30.8527C11.053 27.2565 12.6499 23.9567 14.9948 21.378C21.4664 13.7248 32 12.0564 39.7797 12.0564C41.6247 12.0564 43.5525 12.1482 45.5352 12.3166C45.6316 10.7859 46.7056 8.29098 45.2323 5.87257C35.8416 -9.63285 -18.1068 7.49505 6.265 34.7099L51.7039 61.389C51.7039 61.389 56.0137 63.5472 56 59.7512C49.9414 56.1083 18.6299 37.2967 15.5731 35.5364C13.6593 34.5879 11.9538 33.1882 10.5748 31.4343V31.4343Z" fill="#18EADA"/>
</svg>
