<svg width="43" height="62" viewBox="0 0 43 62" fill="none" xmlns="http://www.w3.org/2000/svg">
<g clip-path="url(#clip0_2_2)">
<path d="M34.3035 62H34.2148C34.151 61.9435 34.0775 61.8993 33.9982 61.8695L18.7128 54.4118L0.984883 45.7598C0.659872 45.5992 0.344709 45.4285 0 45.298V36.395C0.0788486 36.3928 0.15488 36.3647 0.216674 36.3147L5.14109 33.8355L20.1015 26.3477L23.4008 24.7016C23.4796 24.7016 23.5584 24.6514 23.6076 24.5611C23.5206 24.4911 23.4245 24.4337 23.322 24.3905L6.96312 16.3607L0.275767 13.0484C0.187128 13.0484 0.108337 12.928 0 12.948V3.91452H0.0886395C0.0886395 4.00486 0.196977 4.01489 0.265918 4.05504L4.51076 6.13275L7.623 7.65841L11.8186 9.71604L14.8816 11.2116L19.1461 13.2993L22.15 14.7648L26.4244 16.8626L29.5465 18.3581L34.0474 20.5462C34.1355 20.5795 34.2098 20.6424 34.2581 20.7245C34.3064 20.8066 34.3259 20.903 34.3133 20.9979C34.3133 23.718 34.3133 26.4481 34.3133 29.1682V29.389C34.3101 29.418 34.3173 29.4472 34.3336 29.4712C34.3499 29.4952 34.3742 29.5124 34.402 29.5195C34.2348 29.6317 34.0604 29.7323 33.88 29.8206L17.0188 38.543L11.2572 41.5542C11.1814 41.5792 11.1135 41.6242 11.0602 41.6846L11.3065 41.8151L19.8651 46.0107L34.0179 52.9464C34.087 52.9967 34.1693 53.0247 34.2542 53.0267C34.2542 53.117 34.2542 53.2074 34.2542 53.2877V61.7993C34.251 61.8309 34.2593 61.8626 34.2774 61.8885C34.2955 61.9144 34.3223 61.9326 34.3527 61.9398L34.3035 62Z" fill="#5BCACA"/>
<path d="M0.088623 3.92459L4.02816 2.13796L8.7162 0.0502164C8.78268 0.0133195 8.85717 -0.00601196 8.93287 -0.00601196C9.00857 -0.00601196 9.08307 0.0133195 9.14955 0.0502164L40.6658 15.5377L42.7932 16.5414C42.8495 16.5577 42.8983 16.5939 42.9308 16.6436C42.9633 16.6933 42.9774 16.7531 42.9704 16.8124V25.3641C42.978 25.4195 42.9664 25.4758 42.9376 25.5234C42.9089 25.571 42.8648 25.607 42.8129 25.6251L34.4709 29.4894H34.3823C34.3545 29.4823 34.3302 29.4652 34.3139 29.4412C34.2976 29.4172 34.2904 29.3879 34.2936 29.3589V29.1381C34.2936 26.418 34.2936 23.6879 34.2936 20.9678C34.3062 20.8729 34.2867 20.7765 34.2384 20.6944C34.1901 20.6123 34.1158 20.5495 34.0277 20.5161L29.5465 18.3581L26.4342 16.8626L22.1599 14.7648L19.156 13.2994L14.8914 11.2116L11.8186 9.71607L7.61313 7.70863L4.51075 6.13278L0.265902 4.06511C0.19696 4.01492 0.108321 4.01492 0.088623 3.92459Z" fill="#379EA7"/>
<path d="M42.6849 58.1357C42.6159 58.1301 42.5466 58.1418 42.4831 58.1698C42.4195 58.1978 42.3637 58.2412 42.3205 58.2963V58.2963C42.252 58.2952 42.1841 58.3089 42.1213 58.3366C42.0585 58.3643 42.0021 58.4053 41.9561 58.4569V58.4569C41.8871 58.4521 41.8181 58.4642 41.7547 58.4921C41.6914 58.5201 41.6354 58.563 41.5916 58.6175V58.6175C41.3216 58.6808 41.0625 58.7857 40.8234 58.9286C40.8234 58.9286 40.8234 58.9286 40.7545 58.9989C40.6854 58.9997 40.6173 59.0153 40.5545 59.0447C40.4917 59.0741 40.4357 59.1166 40.3901 59.1695V59.1695C40.3215 59.1671 40.2532 59.1802 40.1901 59.208C40.1271 59.2357 40.0709 59.2775 40.0257 59.3301C40.0257 59.3301 40.0257 59.3301 40.0257 59.3301C39.9561 59.3274 39.8868 59.3414 39.8235 59.371C39.7601 59.4007 39.7046 59.4451 39.6613 59.5007V59.5007C39.5923 59.4951 39.523 59.5068 39.4595 59.5348C39.3959 59.5628 39.3401 59.6063 39.2969 59.6613V59.6613C39.2274 59.6594 39.1583 59.6737 39.0951 59.7033C39.0319 59.7329 38.9763 59.7769 38.9325 59.832V59.832C38.8636 59.8272 38.7945 59.8393 38.7312 59.8672C38.6678 59.8952 38.6118 59.9381 38.5681 59.9926V59.9926C38.4984 59.9898 38.4291 60.0038 38.3658 60.0335C38.3025 60.0631 38.247 60.1076 38.2036 60.1632V60.1632C38.0328 60.1678 37.8704 60.2398 37.7506 60.3639V60.3639C37.6815 60.3647 37.6134 60.3803 37.5506 60.4097C37.4878 60.4391 37.4318 60.4817 37.3862 60.5346V60.5346C37.3176 60.5321 37.2493 60.5453 37.1862 60.573C37.1232 60.6008 37.067 60.6425 37.0218 60.6952V60.6952C36.9525 60.6947 36.8839 60.7097 36.821 60.7392C36.758 60.7686 36.7021 60.8119 36.6574 60.8658C36.5887 60.8626 36.5201 60.8754 36.457 60.9033C36.3939 60.9311 36.3378 60.9732 36.293 61.0264V61.0264C36.2239 61.0272 36.1557 61.0428 36.093 61.0722C36.0302 61.1016 35.9742 61.1441 35.9286 61.197V61.197C35.8597 61.1923 35.7906 61.2044 35.7273 61.2323C35.6639 61.2602 35.6079 61.3032 35.5642 61.3576C35.5642 61.3576 35.5642 61.3576 35.5642 61.3576C35.4949 61.3571 35.4263 61.3721 35.3633 61.4016C35.3004 61.4311 35.2445 61.4743 35.1998 61.5283C35.1458 61.5183 35.0902 61.5243 35.0396 61.5457C34.9889 61.5671 34.9454 61.6028 34.9141 61.6487C34.8888 61.6386 34.8607 61.6386 34.8353 61.6487V61.6487C34.8049 61.6415 34.7782 61.6233 34.76 61.5974C34.7419 61.5715 34.7337 61.5398 34.7369 61.5082V53.2676C34.7369 53.1873 34.7369 53.097 34.7369 53.0066V34.4679C34.7369 34.0764 34.6876 34.1768 35.0225 34.0262L43.2266 30.2522C43.292 30.2093 43.366 30.1819 43.4432 30.1719C43.4925 30.1719 43.4432 30.2623 43.4432 30.3125V57.6639C43.4432 57.7643 43.4432 57.8647 43.4432 57.965C43.3184 57.8931 43.172 57.8708 43.032 57.9023C42.892 57.9338 42.7684 58.0169 42.6849 58.1357V58.1357Z" fill="#379EA7"/>
<path d="M40.6658 59.0591C40.6658 59.0591 40.6658 58.9989 40.7348 58.9888C40.9738 58.8459 41.2329 58.741 41.503 58.6777C41.2353 58.8292 40.9552 58.9568 40.6658 59.0591V59.0591Z" fill="#5BCACA"/>
<path d="M37.4847 60.5037C37.6045 60.38 37.7669 60.3083 37.9377 60.3037C37.7982 60.3946 37.6453 60.4621 37.4847 60.5037V60.5037Z" fill="#5BCACA"/>
<path d="M42.35 58.3158C42.3932 58.2609 42.449 58.2176 42.5126 58.1897C42.5761 58.1618 42.6454 58.1502 42.7144 58.1558C42.6049 58.2337 42.4809 58.2881 42.35 58.3158Z" fill="#5BCACA"/>
<path d="M41.9068 58.4864C41.9529 58.435 42.0092 58.3942 42.072 58.3666C42.1348 58.339 42.2027 58.3253 42.2712 58.3264C42.1647 58.4097 42.0395 58.4647 41.9068 58.4864V58.4864Z" fill="#5BCACA"/>
<path d="M41.5227 58.667C41.5665 58.6128 41.6224 58.57 41.6858 58.5422C41.7492 58.5144 41.8182 58.5023 41.8871 58.5071C41.7776 58.5849 41.6536 58.6394 41.5227 58.667Z" fill="#5BCACA"/>
<path d="M40.2719 59.2191C40.3175 59.1664 40.3735 59.124 40.4363 59.0947C40.4991 59.0654 40.5672 59.0499 40.6363 59.0491C40.5276 59.1305 40.4035 59.1884 40.2719 59.2191Z" fill="#5BCACA"/>
<path d="M39.8878 59.4098C39.933 59.3574 39.9892 59.3158 40.0522 59.2881C40.1152 59.2604 40.1835 59.2474 40.2522 59.2498C40.1426 59.3277 40.0187 59.3821 39.8878 59.4098Z" fill="#5BCACA"/>
<path d="M39.5037 59.5904C39.547 59.535 39.6025 59.4907 39.6658 59.4612C39.7292 59.4317 39.7984 59.4177 39.8681 59.4204C39.7594 59.5019 39.6353 59.5598 39.5037 59.5904Z" fill="#5BCACA"/>
<path d="M39.1196 59.7611C39.1628 59.7062 39.2186 59.6629 39.2822 59.6351C39.3457 59.6072 39.415 59.5955 39.484 59.6011C39.3765 59.6827 39.2517 59.7375 39.1196 59.7611V59.7611Z" fill="#5BCACA"/>
<path d="M38.7256 59.9417C38.7694 59.8869 38.8251 59.843 38.8883 59.8136C38.9514 59.7841 39.0205 59.7698 39.09 59.7717C38.9813 59.8532 38.8573 59.911 38.7256 59.9417Z" fill="#5BCACA"/>
<path d="M38.3415 60.1124C38.3853 60.0582 38.4412 60.0154 38.5046 59.9876C38.568 59.9597 38.637 59.9477 38.7059 59.9524C38.5994 60.0357 38.4742 60.0907 38.3415 60.1124V60.1124Z" fill="#5BCACA"/>
<path d="M37.9574 60.293C38.0007 60.2376 38.0563 60.1933 38.1196 60.1638C38.1829 60.1343 38.2522 60.1203 38.3218 60.123C38.2131 60.2045 38.0891 60.2624 37.9574 60.293Z" fill="#5BCACA"/>
<path d="M37.0907 60.6845C37.1363 60.6318 37.1923 60.5894 37.2551 60.5601C37.3179 60.5308 37.386 60.5153 37.4551 60.5145C37.3492 60.6006 37.2241 60.659 37.0907 60.6845V60.6845Z" fill="#5BCACA"/>
<path d="M36.7066 60.8552C36.7519 60.8027 36.808 60.7612 36.8711 60.7335C36.9341 60.7058 37.0024 60.6927 37.071 60.6952C36.9645 60.7785 36.8393 60.8335 36.7066 60.8552V60.8552Z" fill="#5BCACA"/>
<path d="M36.3225 61.0358C36.3673 60.9821 36.4231 60.939 36.4861 60.9096C36.5491 60.8802 36.6176 60.8653 36.6869 60.8658C36.5782 60.9472 36.4542 61.0051 36.3225 61.0358Z" fill="#5BCACA"/>
<path d="M35.9384 61.2265C35.9832 61.1735 36.0393 61.1316 36.1024 61.1039C36.1656 61.0761 36.2341 61.0634 36.3028 61.0665C36.1954 61.1481 36.0705 61.2029 35.9384 61.2265V61.2265Z" fill="#5BCACA"/>
<path d="M35.5444 61.3871C35.59 61.3344 35.646 61.292 35.7088 61.2627C35.7716 61.2334 35.8398 61.2179 35.9088 61.2171C35.8029 61.3033 35.6778 61.3616 35.5444 61.3871V61.3871Z" fill="#5BCACA"/>
<path d="M35.1603 61.5578C35.2041 61.5035 35.26 61.4607 35.3234 61.4329C35.3868 61.4051 35.4558 61.393 35.5247 61.3978C35.4183 61.4811 35.293 61.5361 35.1603 61.5578V61.5578Z" fill="#5BCACA"/>
<path d="M34.7762 61.7384C34.821 61.6847 34.8768 61.6416 34.9398 61.6122C35.0028 61.5828 35.0714 61.5679 35.1407 61.5684C35.0338 61.6529 34.909 61.7111 34.7762 61.7384V61.7384Z" fill="#5BCACA"/>
<path d="M42.6848 58.135C42.7671 58.048 42.8737 57.9887 42.9902 57.965C42.9311 58.095 42.7932 58.105 42.6848 58.135Z" fill="#5BCACA"/>
<path d="M34.4709 61.8691C34.5021 61.8234 34.5457 61.7877 34.5963 61.7665C34.647 61.7452 34.7026 61.7391 34.7565 61.7491C34.6754 61.8174 34.5758 61.8593 34.4709 61.8691V61.8691Z" fill="#5BCACA"/>
<path d="M34.3823 61.9096C34.4076 61.8996 34.4357 61.8996 34.4611 61.9096C34.4357 61.9197 34.4076 61.9197 34.3823 61.9096V61.9096Z" fill="#5BCACA"/>
</g>
<defs>
<clipPath id="clip0_2_2">
<rect width="43" height="62" fill="white"/>
</clipPath>
</defs>
</svg>
